<?xml version="1.0" standalone="no"?>
<!DOCTYPE svg PUBLIC "-//W3C//DTD SVG 20010904//EN"
 "http://www.w3.org/TR/2001/REC-SVG-20010904/DTD/svg10.dtd">
<svg version="1.0" xmlns="http://www.w3.org/2000/svg"
 width="1536.000000pt" height="1024.000000pt" viewBox="0 0 1536.000000 1024.000000"
 preserveAspectRatio="xMidYMid meet">

<g transform="translate(0.000000,1024.000000) scale(0.100000,-0.100000)"
fill="#000000" stroke="none">
<path d="M0 5120 l0 -5120 7680 0 7680 0 0 5120 0 5120 -7680 0 -7680 0 0
-5120z m6810 2774 c60 -33 112 -99 130 -162 6 -24 10 -342 10 -894 l0 -857
-22 -15 c-34 -24 -304 -23 -330 1 -17 15 -18 53 -18 786 0 703 -1 772 -17 789
-15 17 -86 18 -1860 18 -1252 0 -1851 -3 -1864 -10 -19 -11 -19 -46 -19 -2218
0 -1373 4 -2213 10 -2222 8 -13 191 -16 1517 -20 l1508 -5 43 -65 c63 -95 122
-202 122 -223 0 -10 -11 -29 -25 -43 l-24 -24 -1653 2 -1653 3 -46 21 c-58 27
-110 79 -140 140 l-24 49 0 2390 0 2390 22 45 c32 65 92 119 155 141 51 18
132 18 2088 16 l2035 -2 55 -31z m4307 -345 c405 -105 696 -449 731 -863 16
-191 -16 -366 -98 -531 -132 -265 -364 -450 -656 -522 -109 -26 -335 -24 -444
6 -349 94 -603 351 -702 709 -32 115 -32 363 0 482 52 193 133 334 271 470
159 158 323 237 566 274 63 9 256 -5 332 -25z m-6758 -459 c19 -5 48 -22 64
-37 58 -56 71 -111 42 -181 -20 -46 -662 -694 -717 -723 -46 -24 -112 -24
-156 0 -18 9 -103 87 -188 172 -113 113 -158 164 -166 191 -36 121 88 233 208
188 15 -6 70 -52 121 -103 l94 -91 282 281 c315 315 332 327 416 303z m1717
-269 c65 -30 89 -72 89 -158 0 -82 -18 -116 -76 -145 -31 -17 -83 -18 -639
-18 -674 0 -650 -2 -697 69 -43 64 -39 154 10 215 44 55 51 55 687 55 549 1
587 -1 626 -18z m-1686 -1001 c46 -24 90 -91 90 -139 0 -59 -32 -104 -181
-251 -571 -565 -553 -548 -592 -555 -23 -5 -57 -2 -85 6 -40 11 -69 34 -200
163 -159 156 -192 201 -192 259 0 69 80 147 152 147 54 0 70 -10 174 -111 50
-49 95 -89 100 -89 5 0 133 124 284 276 151 151 291 284 310 294 46 25 91 25
140 0z m4150 -191 c108 -13 213 -48 304 -101 85 -50 227 -189 275 -271 45 -77
89 -207 102 -303 6 -51 9 -336 7 -814 -4 -719 -4 -737 -25 -805 -49 -160 -117
-270 -229 -374 -119 -109 -229 -165 -379 -196 -70 -14 -185 -15 -960 -13
l-880 3 -80 27 c-122 42 -199 92 -305 198 -78 77 -104 112 -142 186 -26 50
-57 126 -70 170 l-23 79 0 775 c0 872 -2 850 75 1009 119 246 336 402 600 430
117 13 1631 13 1730 0z m-2667 -23 c85 -36 96 -110 33 -216 -22 -36 -48 -75
-59 -87 l-20 -23 -494 0 c-540 0 -525 -2 -576 60 -66 78 -29 224 68 266 45 20
1001 20 1048 0z m5604 -249 c297 -77 581 -238 792 -447 182 -180 329 -477 376
-759 32 -191 8 -300 -80 -367 -74 -56 3 -53 -1523 -54 l-1413 0 -24 25 -25 24
0 563 c0 643 -4 606 90 691 127 115 328 227 522 292 186 62 212 64 723 61
l460 -2 102 -27z m-7080 -794 c48 -30 83 -87 83 -132 0 -71 -25 -100 -366
-439 -184 -183 -349 -342 -367 -352 -38 -24 -104 -26 -152 -6 -42 18 -293 261
-335 324 -33 50 -38 93 -16 145 17 41 66 83 107 92 65 15 96 -1 199 -101 53
-52 101 -94 106 -94 5 0 133 124 284 276 151 152 289 285 305 295 43 27 103
24 152 -8z m1374 -202 c16 -20 19 -40 19 -135 0 -125 -8 -146 -61 -165 -22 -8
-168 -10 -465 -9 -421 3 -433 4 -461 24 -87 65 -108 181 -46 255 50 59 45 59
541 56 l454 -2 19 -24z"/>
<path d="M8422 5058 c-28 -15 -118 -108 -269 -279 -548 -616 -716 -799 -732
-799 -6 0 -104 95 -218 211 -115 116 -225 220 -245 230 -94 48 -227 -1 -279
-103 -26 -51 -26 -155 0 -206 29 -55 637 -658 683 -677 98 -40 178 -4 301 135
132 151 835 944 940 1062 100 112 120 141 132 196 17 82 -45 195 -129 233 -57
26 -133 24 -184 -3z"/>
</g>
</svg>
